<svg width="920" height="250" fill="none" xmlns="http://www.w3.org/2000/svg"><path d="M25 20v20c0 56.569 0 84.853 17.574 102.426C60.147 160 88.432 160 145 160h50" stroke="#E6A625" stroke-width="40" stroke-linecap="round"/><path d="M160 166l-27.5 47.631M35 52l43.301 25" stroke="#E653A5" stroke-width="40" stroke-linecap="round"/><path d="M82 38v90c0 47.14 0 70.711 14.645 85.355C111.289 228 134.86 228 182 228h2" stroke="#1751AF" stroke-width="40" stroke-linecap="round"/><mask id="prefix__a" maskUnits="userSpaceOnUse" x="56" y="13" width="153" height="241"><path d="M82 38v90c0 47.14 0 70.711 14.645 85.355C111.289 228 134.86 228 182 228h2" stroke="#fff" stroke-width="50" stroke-linecap="round"/></mask><g mask="url(#prefix__a)"><path d="M25 20v20c0 56.569 0 84.853 17.574 102.426C60.147 160 88.432 160 145 160h50" stroke="#E6A625" stroke-width="40" stroke-linecap="round"/></g><path d="M365.86 187.64c5.346 0 9.68 4.334 9.68 9.68s-4.334 9.68-9.68 9.68h-22.44c-6.013 0-10.78-.073-14.3-.22-3.373-.293-7.627-1.173-12.76-2.64-5.133-1.613-9.46-3.96-12.98-7.04-5.427-4.987-8.947-10.927-10.56-17.82-1.613-7.04-2.42-15.253-2.42-24.64v-91.3c0-5.71 4.629-10.34 10.34-10.34s10.34 4.63 10.34 10.34v90.86c0 8.507.953 15.18 2.86 20.02 3.813 8.947 11.807 13.42 23.98 13.42h27.94zm79.288-43.708c2.11.568 3.525 2.515 3.525 4.7v6.024c0 4.139-4.974 6.725-8.91 5.442-3.514-1.145-7.364-1.718-11.55-1.718-6.894 0-12.247 1.393-16.06 4.18-3.814 2.64-5.72 6.453-5.72 11.44 0 9.68 7.186 14.52 21.56 14.52h19.04c5.523 0 10-4.477 10-10V146.5c0-17.747-8.654-26.62-25.96-26.62h-25.96a9.24 9.24 0 010-18.48h27.06c14.226 0 25.153 3.52 32.78 10.56 7.626 7.04 11.44 17.16 11.44 30.36V187c0 11.046-8.954 20-20 20h-29.06c-12.467 0-22.367-2.787-29.7-8.36-7.334-5.573-11-13.713-11-24.42 0-10.707 3.886-18.847 11.66-24.42 7.773-5.573 17.526-8.36 29.26-8.36 5.554 0 11.419.831 17.595 2.492zM496.177 62.9c0-5.468 4.432-9.9 9.9-9.9s9.9 4.432 9.9 9.9v91.3c0 11.587 2.934 20.607 8.8 27.06 6.014 6.307 14.227 9.46 24.64 9.46 10.854 0 19.36-3.08 25.52-9.24 6.16-6.307 9.24-15.4 9.24-27.28 0-11.293-3.373-20.167-10.12-26.62-6.6-6.6-15.326-9.9-26.18-9.9-5.483 0-10.527.93-15.132 2.789-3.865 1.56-8.848-.963-8.848-5.131v-6.57c0-1.83.992-3.53 2.643-4.319 7.321-3.499 15.167-5.249 23.537-5.249 15.547 0 28.38 5.06 38.5 15.18 10.267 9.973 15.4 23.247 15.4 39.82 0 17.453-5.353 31.02-16.06 40.7-10.56 9.533-23.906 14.3-40.04 14.3-15.4 0-27.866-4.987-37.4-14.96-9.533-9.973-14.3-23.32-14.3-40.04V62.9zm138.54 52.36c10.267-10.707 23.1-16.06 38.5-16.06 7.48 0 14.447 1.467 20.9 4.4 6.6 2.787 12.32 6.673 17.16 11.66 4.987 4.987 8.874 10.853 11.66 17.6 2.787 6.6 4.18 13.713 4.18 21.34 0 7.627-1.393 14.813-4.18 21.56-2.64 6.6-6.38 12.393-11.22 17.38-4.84 4.987-10.56 8.947-17.16 11.88-6.6 2.787-13.713 4.18-21.34 4.18-7.773 0-14.96-1.393-21.56-4.18-6.453-2.933-12.1-6.893-16.94-11.88-4.84-4.987-8.653-10.78-11.44-17.38-2.64-6.747-3.96-13.933-3.96-21.56 0-15.547 5.134-28.527 15.4-38.94zm38.5 2.42c-10.266 0-18.553 3.373-24.86 10.12-6.16 6.747-9.24 15.547-9.24 26.4 0 10.853 3.08 19.653 9.24 26.4 6.307 6.747 14.594 10.12 24.86 10.12 10.414 0 18.7-3.373 24.86-10.12 6.16-6.893 9.24-15.693 9.24-26.4 0-10.707-3.08-19.433-9.24-26.18-6.16-6.893-14.446-10.34-24.86-10.34zm161.497-54.34c0-5.71 4.629-10.34 10.34-10.34s10.34 4.63 10.34 10.34v95.26c0 17.453-4.546 30.287-13.64 38.5-8.946 8.067-22.513 12.1-40.7 12.1-18.186 0-31.753-4.033-40.7-12.1-8.946-8.213-13.42-21.047-13.42-38.5V63.34c0-5.71 4.629-10.34 10.34-10.34s10.34 4.63 10.34 10.34v98.12c0 9.973 3.007 17.233 9.02 21.78 6.16 4.4 14.227 6.6 24.2 6.6 10.267 0 18.48-2.2 24.64-6.6 6.16-4.547 9.24-11.807 9.24-21.78V63.34zm66.671 133.32c0 5.711-4.629 10.34-10.34 10.34s-10.34-4.629-10.34-10.34V63.34c0-5.71 4.629-10.34 10.34-10.34s10.34 4.63 10.34 10.34v133.32z" fill="#1751AF"/></svg>
