<svg width="180" height="80" viewBox="0 0 180 80" fill="none" xmlns="http://www.w3.org/2000/svg">
<path d="M32.2707 52.8103V20.0573M24 60V20.0573M107.534 48.4137H134M92.6466 28.4424H134M99.2632 38.0286H134M39.3008 52.753V20M46.3308 52.8103V20.0573M62.8722 52.8676V20.1145M54.6015 60V20.1145M69.9023 52.8103V20.0573M76.9323 52.8676V39.7652M76.9323 20.1145V32.8389" stroke="currentColor" stroke-width="4" stroke-linecap="round"/>
<path d="M90 5H20.6944C13.1312 5 7 11.6598 7 19.875V30M100 5H138.306C145.869 5 152 11.6598 152 19.875V60.125C152 68.3402 145.869 75 138.306 75H20.6944C13.1312 75 7 68.3402 7 60.125V40" stroke="currentColor" stroke-width="4" stroke-linecap="round"/>
</svg>
