<svg width="30" height="30" viewBox="0 0 30 30" fill="none" xmlns="http://www.w3.org/2000/svg">
<path d="M26.0625 18.1562C26.5803 18.1562 27 17.7365 27 17.2188V11.125C27 9.05725 25.3177 7.375 23.25 7.375H21.8268C21.4253 7.375 21.0687 7.11967 20.9393 6.73956L20.6557 5.90627C20.2675 4.76608 19.1976 4 17.9932 4H12.0039C10.8228 4 9.75975 4.74639 9.35864 5.85723L9.03412 6.75592C8.90039 7.12619 8.54606 7.375 8.15236 7.375H6.75C4.68225 7.375 3 9.05725 3 11.125V21.9062C3 23.974 4.68225 25.6562 6.75 25.6562H23.25C25.3177 25.6562 27 23.974 27 21.9062C27 21.3885 26.5803 20.9688 26.0625 20.9688C25.5447 20.9688 25.125 21.3885 25.125 21.9062C25.125 22.9401 24.2839 23.7812 23.25 23.7812H6.75C5.71613 23.7812 4.875 22.9401 4.875 21.9062V11.125C4.875 10.0911 5.71613 9.25 6.75 9.25H8.15236C9.33342 9.25 10.3965 8.50361 10.7976 7.39277L11.1221 6.49408C11.2559 6.12381 11.6102 5.875 12.0039 5.875H17.9932C18.3946 5.875 18.7513 6.13037 18.8807 6.51044L19.1643 7.34373C19.5524 8.48392 20.6224 9.25 21.8268 9.25H23.25C24.2839 9.25 25.125 10.0911 25.125 11.125V17.2188C25.125 17.7365 25.5447 18.1562 26.0625 18.1562Z" fill="currentColor"/>
<path d="M15.0469 10.1875C11.816 10.1875 9.1875 12.816 9.1875 16.0469C9.1875 19.2777 11.816 21.9062 15.0469 21.9062C18.2777 21.9062 20.9062 19.2777 20.9062 16.0469C20.9062 12.816 18.2777 10.1875 15.0469 10.1875ZM15.0469 20.0312C12.8499 20.0312 11.0625 18.2439 11.0625 16.0469C11.0625 13.8499 12.8499 12.0625 15.0469 12.0625C17.2439 12.0625 19.0312 13.8499 19.0312 16.0469C19.0312 18.2439 17.2439 20.0312 15.0469 20.0312Z" fill="currentColor"/>
</svg>
