<svg width="50" height="50" viewBox="0 0 50 50" fill="none" xmlns="http://www.w3.org/2000/svg">
<g clip-path="url(#clip0)">
<path d="M25 50.0001C38.8072 50.0001 50.0001 38.8072 50.0001 25C50.0001 11.1929 38.8072 0 25 0C11.1929 0 0 11.1929 0 25C0 38.8072 11.1929 50.0001 25 50.0001Z" fill="#E24C4B"/>
<path d="M50 25.0004C50 38.7505 38.75 50.0005 25 50.0005C17.0313 50.0005 10 46.4067 5.46869 40.6255C9.68744 44.063 15.1562 46.0943 21.0937 46.0943C34.8437 46.0943 46.0937 34.8443 46.0937 21.0942C46.0937 15.1568 44.0625 9.68799 40.6249 5.46924C46.4063 10.0003 50 17.0316 50 25.0004Z" fill="#D1403F"/>
<path d="M36.4063 36.4062C35.4689 37.3437 33.9063 37.3437 32.9688 36.4062L25.0001 28.4375L17.0314 36.4062C16.0939 37.3437 14.5313 37.3437 13.5938 36.4062C12.6564 35.4687 12.6564 33.9061 13.5938 32.9687L21.5626 25L13.5938 17.0312C12.6564 16.0938 12.6564 14.5312 13.5938 13.5937C14.5313 12.6563 16.0939 12.6563 17.0314 13.5937L25.0001 21.5624L32.9688 13.5937C33.9063 12.6563 35.4689 12.6563 36.4063 13.5937C37.3438 14.5312 37.3438 16.0938 36.4063 17.0312L28.4376 25L36.4063 32.9687C37.3438 33.9061 37.3438 35.4686 36.4063 36.4062Z" fill="white"/>
</g>
<defs>
<clipPath id="clip0">
<rect width="50" height="50" fill="white"/>
</clipPath>
</defs>
</svg>
