<svg width="50" height="50" viewBox="0 0 50 50" fill="none" xmlns="http://www.w3.org/2000/svg">
<path d="M35.7709 10.7646C34.0917 8.3375 25.2896 6.75625 21.725 6.25C21.3729 7.76458 21.9563 9.67292 23.5146 10.575C25.0334 11.4542 29.4459 12.8208 30.75 14.1208C32.4417 15.8042 34.9709 23.8458 30.8084 29.2917C26.4834 28.0646 21.975 28.1938 19.5271 29.1917C17.125 30.1708 17.4167 33.1667 19.9209 33.4521C27.0459 34.2646 35.7271 35.8708 41.425 43.75C41.425 43.75 45.2188 39.8229 49.9979 34.5292C42.3563 28.1687 41.2521 18.6833 35.7709 10.7646Z" fill="#32A251"/>
<path d="M21 30C24 30.0001 31 31.9521 34 33.4521C37 34.9521 45 39.9997 45 39.9997C44.0061 41.0493 41.425 43.7499 41.425 43.7499C35.7271 35.8707 27.0459 34.2645 19.9209 33.452C17 33.0001 18 29.9999 21 30Z" fill="#2E944A"/>
<path d="M23.5417 13.7498C24.1156 13.7498 24.5834 14.2175 24.5834 14.7915V25.2082C24.5834 25.7821 24.1156 26.2498 23.5417 26.2498H4.79169C4.21773 26.2498 3.75002 25.7821 3.75002 25.2082V14.7915C3.75002 14.2175 4.21773 13.7498 4.79169 13.7498H23.5417ZM23.5417 11.6665H4.79169C3.06565 11.6665 1.66669 13.0655 1.66669 14.7915V25.2082C1.66669 26.9342 3.06565 28.3332 4.79169 28.3332H23.5417C25.2677 28.3332 26.6667 26.9342 26.6667 25.2082V14.7915C26.6667 13.0655 25.2677 11.6665 23.5417 11.6665ZM5.83335 24.1665V15.8332H7.91669V24.1665H5.83335ZM18.3334 24.1665V15.8332H20.4167V24.1665H18.3334ZM8.95835 24.1665V15.8332H10V24.1665H8.95835ZM11.0417 24.1665V15.8332H13.125V24.1665H11.0417ZM14.1667 24.1665V15.8332H15.2084V24.1665H14.1667ZM16.25 24.1665V15.8332H17.2917V24.1665H16.25ZM21.4584 24.1665V15.8332H22.5V24.1665H21.4584Z" fill="#32A251"/>
</svg>
