<svg width="50" height="50" viewBox="0 0 50 50" fill="none" xmlns="http://www.w3.org/2000/svg">
<path opacity="0.9" d="M6.83594 25.7822C10.072 25.7822 12.6953 23.1589 12.6953 19.9229C12.6953 16.6868 10.072 14.0635 6.83594 14.0635C3.59989 14.0635 0.976562 16.6868 0.976562 19.9229C0.976562 23.1589 3.59989 25.7822 6.83594 25.7822Z" fill="#FF7610"/>
<path opacity="0.8" d="M16.8945 13.1846C20.1306 13.1846 22.7539 10.5612 22.7539 7.3252C22.7539 4.08915 20.1306 1.46582 16.8945 1.46582C13.6585 1.46582 11.0352 4.08915 11.0352 7.3252C11.0352 10.5612 13.6585 13.1846 16.8945 13.1846Z" fill="#FF7610"/>
<path d="M10.5469 41.7002C13.7829 41.7002 16.4062 39.0769 16.4062 35.8408C16.4062 32.6048 13.7829 29.9814 10.5469 29.9814C7.31083 29.9814 4.6875 32.6048 4.6875 35.8408C4.6875 39.0769 7.31083 41.7002 10.5469 41.7002Z" fill="#E88110"/>
<path opacity="0.6" d="M43.1641 25.7822C46.4001 25.7822 49.0234 23.1589 49.0234 19.9229C49.0234 16.6868 46.4001 14.0635 43.1641 14.0635C39.928 14.0635 37.3047 16.6868 37.3047 19.9229C37.3047 23.1589 39.928 25.7822 43.1641 25.7822Z" fill="#FFA51F" fill-opacity="0.8"/>
<path opacity="0.7" d="M32.8594 12.7188C36.0954 12.7188 38.7188 10.0954 38.7188 6.85938C38.7188 3.62333 36.0954 1 32.8594 1C29.6233 1 27 3.62333 27 6.85938C27 10.0954 29.6233 12.7188 32.8594 12.7188Z" fill="#FFA51F"/>
<path d="M39.4531 41.7002C42.6892 41.7002 45.3125 39.0769 45.3125 35.8408C45.3125 32.6048 42.6892 29.9814 39.4531 29.9814C36.2171 29.9814 33.5938 32.6048 33.5938 35.8408C33.5938 39.0769 36.2171 41.7002 39.4531 41.7002Z" fill="#FF9A03" fill-opacity="0.3"/>
<path d="M25 48.5361C28.236 48.5361 30.8594 45.9128 30.8594 42.6768C30.8594 39.4407 28.236 36.8174 25 36.8174C21.764 36.8174 19.1406 39.4407 19.1406 42.6768C19.1406 45.9128 21.764 48.5361 25 48.5361Z" fill="#E88110"/>
</svg>
