<svg width="30" height="30" viewBox="0 0 30 30" fill="none" xmlns="http://www.w3.org/2000/svg">
<path d="M21.5 30C17.3646 30 14 26.6354 14 22.5C14 18.3646 17.3646 15 21.5 15C25.6354 15 29 18.3646 29 22.5C29 26.6354 25.6354 30 21.5 30ZM21.5 16.7308C18.3188 16.7308 15.7308 19.3188 15.7308 22.5C15.7308 25.6812 18.3188 28.2692 21.5 28.2692C24.6812 28.2692 27.2692 25.6812 27.2692 22.5C27.2692 19.3188 24.6812 16.7308 21.5 16.7308Z" fill="currentColor"/>
<path d="M23.0769 25C22.8911 25 22.704 24.9475 22.5403 24.8367L20.3865 23.3783C20.144 23.215 20 22.949 20 22.6667V18.875C20 18.392 20.4135 18 20.9231 18C21.4326 18 21.8462 18.392 21.8462 18.875V22.2163L23.6136 23.4122C24.0283 23.6933 24.1243 24.2393 23.8277 24.6325C23.648 24.8728 23.3637 25 23.0769 25Z" fill="currentColor"/>
<path d="M11.5625 20.625H3.56253C3.04503 20.625 2.62503 20.205 2.62503 19.6875C2.62503 19.17 3.04503 18.75 3.56253 18.75H11.5625C12.08 18.75 12.5 19.17 12.5 19.6875C12.5 20.205 12.08 20.625 11.5625 20.625Z" fill="currentColor"/>
<path d="M18.25 7.49984C18.9404 7.49984 19.5 6.94019 19.5 6.24984C19.5 5.55948 18.9404 4.99984 18.25 4.99984C17.5596 4.99984 17 5.55948 17 6.24984C17 6.94019 17.5596 7.49984 18.25 7.49984Z" fill="currentColor"/>
<path d="M13.25 7.49984C13.9404 7.49984 14.5 6.94019 14.5 6.24984C14.5 5.55948 13.9404 4.99984 13.25 4.99984C12.5597 4.99984 12 5.55948 12 6.24984C12 6.94019 12.5597 7.49984 13.25 7.49984Z" fill="currentColor"/>
<path d="M8.24996 7.49984C8.94031 7.49984 9.49995 6.94019 9.49995 6.24984C9.49995 5.55948 8.94031 4.99984 8.24996 4.99984C7.5596 4.99984 6.99996 5.55948 6.99996 6.24984C6.99996 6.94019 7.5596 7.49984 8.24996 7.49984Z" fill="currentColor"/>
<path d="M14 30H5.4375C3.54125 30 2 28.4588 2 26.5625V3.4375C2 1.54125 3.54125 0 5.4375 0H21.0625C22.9588 0 24.5 1.54125 24.5 3.4375V10.3125C24.5 10.83 24.08 11.25 23.5625 11.25H3.875V26.5625C3.875 27.4238 4.57625 28.125 5.4375 28.125H14C14.5175 28.125 14.9375 28.545 14.9375 29.0625C14.9375 29.58 14.5175 30 14 30ZM3.875 9.375H22.625V3.4375C22.625 2.57625 21.9238 1.875 21.0625 1.875H5.4375C4.57625 1.875 3.875 2.57625 3.875 3.4375V9.375Z" fill="currentColor"/>
</svg>
