<svg width="30" height="30" viewBox="0 0 30 30" fill="none" xmlns="http://www.w3.org/2000/svg"><path d="M23.4173 30H6.5826C4.74123 30 3.24316 28.5019 3.24316 26.6606V3.33943C3.24322 1.49807 4.74123 0 6.5826 0H18.4595C19.3111 0 20.1222 0.320742 20.7435 0.903164L25.7013 5.55111C26.372 6.18 26.7567 7.06787 26.7567 7.98738V18.9543C26.7567 19.4021 26.3937 19.7651 25.9459 19.7651C25.4981 19.7651 25.1351 19.4021 25.1351 18.9543V7.98738C25.1351 7.51441 24.9373 7.05773 24.5921 6.73418L19.6344 2.08623C19.3148 1.78664 18.8976 1.62164 18.4595 1.62164H6.5826C5.63543 1.62164 4.8648 2.39221 4.8648 3.33943V26.6607C4.8648 27.6078 5.63537 28.3784 6.5826 28.3784H23.4174C24.3646 28.3784 25.1352 27.6078 25.1352 26.6606V23.451C25.1352 23.0031 25.4982 22.6402 25.946 22.6402C26.3938 22.6402 26.7568 23.0031 26.7568 23.451V26.6606C26.7567 28.5019 25.2587 30 23.4173 30Z" fill="currentColor"/><path d="M14.9999 23.8962C14.5521 23.8962 14.1891 23.5332 14.1891 23.0853V19.8872C14.1891 19.4393 14.5521 19.0764 14.9999 19.0764C15.4477 19.0764 15.8107 19.4393 15.8107 19.8872V23.0853C15.8107 23.5331 15.4477 23.8962 14.9999 23.8962Z" fill="currentColor"/><path d="M16.599 22.2973H13.4008C12.953 22.2973 12.59 21.9343 12.59 21.4865C12.59 21.0386 12.953 20.6756 13.4008 20.6756H16.599C17.0468 20.6756 17.4098 21.0386 17.4098 21.4865C17.4098 21.9342 17.0468 22.2973 16.599 22.2973Z" fill="currentColor"/><path d="M14.9999 26.7974C12.0715 26.7974 9.68912 24.415 9.68912 21.4866C9.68912 18.5582 12.0715 16.1758 14.9999 16.1758C15.8944 16.1758 16.779 16.4026 17.5584 16.8318C17.9507 17.0477 18.0936 17.5408 17.8776 17.9331C17.6616 18.3254 17.1686 18.4683 16.7763 18.2523C16.2359 17.9548 15.6217 17.7975 15 17.7975C12.9657 17.7975 11.3108 19.4524 11.3108 21.4867C11.3108 23.5209 12.9657 25.1758 15 25.1758C17.0343 25.1758 18.6892 23.5209 18.6892 21.4867C18.6892 21.0388 19.0522 20.6758 19.5 20.6758C19.9478 20.6758 20.3108 21.0388 20.3108 21.4867C20.3108 24.415 17.9283 26.7974 14.9999 26.7974Z" fill="currentColor"/><path d="M19.2177 13.378H10.7823C9.28216 13.378 8.06177 12.1576 8.06177 10.6575V7.99059C8.06177 6.49041 9.28222 5.27002 10.7823 5.27002H19.2177C20.7178 5.27002 21.9382 6.49047 21.9382 7.99059V10.6575C21.9382 12.1576 20.7178 13.378 19.2177 13.378ZM10.7823 6.89154C10.1764 6.89154 9.68335 7.38461 9.68335 7.99053V10.6574C9.68335 11.2634 10.1764 11.7564 10.7823 11.7564H19.2177C19.8236 11.7564 20.3167 11.2633 20.3167 10.6574V7.99053C20.3167 7.38455 19.8236 6.89154 19.2177 6.89154H10.7823Z" fill="currentColor"/></svg>
