<svg viewBox="0 0 4610 959" xmlns="http://www.w3.org/2000/svg" fill-rule="evenodd" clip-rule="evenodd" stroke-linejoin="round" stroke-miterlimit="2"><path d="M4183.969 391.729c-9.514 0-17.226-7.712-17.226-17.226V71.483c0-39.416 32.067-71.483 71.479-71.483h80.725c39.412 0 71.479 32.067 71.479 71.483v113.789c0 9.514-7.712 17.226-17.226 17.226s-17.226-7.712-17.226-17.226V71.483c0-20.418-16.609-37.031-37.027-37.031h-80.725c-20.418 0-37.027 16.613-37.027 37.031v303.02c0 9.514-7.712 17.226-17.226 17.226" fill="#438cc9" fill-rule="nonzero"/><path d="M4318.949 661.449h-80.724c-39.413 0-71.48-32.067-71.48-71.479V476.18c0-9.513 7.713-17.225 17.226-17.225 9.514 0 17.227 7.712 17.227 17.225v113.79c0 20.418 16.608 37.027 37.027 37.027h80.724c20.418 0 37.027-16.609 37.027-37.027V286.946c0-9.514 7.712-17.226 17.226-17.226s17.226 7.712 17.226 17.226V589.97c0 39.412-32.066 71.479-71.479 71.479" fill="#204f96" fill-rule="nonzero"/><path d="M4537.829 442.567H4424.04c-9.514 0-17.226-7.712-17.226-17.226s7.712-17.226 17.226-17.226h113.789c20.418 0 37.027-16.613 37.027-37.031v-80.721c0-20.418-16.609-37.031-37.027-37.031h-303.024c-9.514 0-17.226-7.712-17.226-17.226s7.712-17.226 17.226-17.226h303.024c39.413 0 71.479 32.067 71.479 71.483v80.721c0 39.416-32.066 71.483-71.479 71.483" fill="#204f96" fill-rule="nonzero"/><path d="M4322.369 442.567h-303.023c-39.413 0-71.48-32.067-71.48-71.483v-80.721c0-39.416 32.067-71.483 71.48-71.483h113.789c9.513 0 17.226 7.712 17.226 17.226s-7.713 17.226-17.226 17.226h-113.789c-20.419 0-37.028 16.613-37.028 37.031v80.721c0 20.418 16.609 37.031 37.028 37.031h303.023c9.514 0 17.226 7.712 17.226 17.226s-7.712 17.226-17.226 17.226" fill="#438cc9" fill-rule="nonzero"/><path d="M326.314 211.052c2.673-9.604 4.539-9.593 7.198.016l197.181 720.647c4.541 15.415 19.3 26.976 34.059 26.976h66.574c19.3 0 31.789-19.268 26.113-38.536L415.618 46.705c-4.541-15.412-18.165-26.974-34.058-26.974H278.313c-15.893 0-29.517 11.562-34.058 26.974L1.299 920.155c-5.676 19.268 7.948 38.536 27.248 38.536H95.12c14.76 0 28.384-11.561 32.925-26.976l198.269-720.663zM989.069 199.324h54.657c14.697 0 26.611 11.914 26.611 26.611v587.461c0 24.425 9.19 32.811 35.227 32.811h10.162c14.302 0 25.896 11.594 25.896 25.896v53.042c0 14.301-11.594 25.895-25.896 25.895h-20.514c-37.936 0-69.209-9.755-93.828-29.276-25.957-19.85-38.926-53.234-38.926-100.134V225.935c0-14.697 11.914-26.611 26.611-26.611" fill="#204f96" fill-rule="nonzero"/><path d="M2612.069 847.228c10.907 10.028 11.242 27.209.625 37.544-18.274 17.788-38.726 32.87-61.365 45.248-30.643 17.442-66.114 26.496-106.409 27.18-61.162 0-114.848-21.476-161.055-64.446-47.869-42.961-72.463-112.564-73.792-208.81 1.329-97.265 25.947-167.73 73.854-211.385 46.243-42.962 99.977-64.101 161.192-63.416 40.257.693 75.686 9.264 106.299 25.722 22.978 12.614 43.704 28.417 62.178 47.405 10.183 10.465 9.69 27.296-1.076 37.161l-38.452 35.231c-10.225 9.369-25.97 8.958-35.8-.824-23.998-23.882-53.763-36.382-89.296-37.502-88.569-1.37-133.522 54.497-134.85 167.608 1.328 112.431 46.272 167.79 134.841 166.066 35.525-.555 65.285-12.832 89.281-36.829 9.836-9.837 25.64-10.258 35.88-.842l37.945 34.889z" fill="#4385bc" fill-rule="nonzero"/><path d="M1530.199 816.377c0 25.616-20.766 46.383-46.383 46.383h-120.54c-25.616 0-46.382-20.767-46.382-46.383v-35.552c0-25.616 20.766-46.382 46.382-46.382h120.54c25.617 0 46.383 20.766 46.383 46.382v35.552zm-6.37-407.24h-240.665c-14.296 0-25.885 11.589-25.885 25.884v53.56c0 14.296 11.589 23.64 25.885 23.64h216.176c17.043 0 30.859 13.816 30.859 30.86v83.868c0 5.681-4.605 10.286-10.286 10.286H1347.13c-71.478 0-129.423 57.945-129.423 129.423v61.129c0 71.478 57.945 129.423 129.423 129.423h266.809c14.295 0 25.884-11.589 25.884-25.885V521.303c0-61.948-54.047-112.166-115.994-112.166" fill="#204f96" fill-rule="nonzero"/><path d="M2968.229 816.377c0 25.616-20.766 46.383-46.383 46.383h-120.54c-25.616 0-46.382-20.767-46.382-46.383v-35.552c0-25.616 20.766-46.382 46.382-46.382h120.54c25.617 0 46.383 20.766 46.383 46.382v35.552zm-6.37-407.24h-240.665c-14.296 0-25.884 11.589-25.884 25.884v53.56c0 14.296 11.588 23.64 25.884 23.64h216.176c17.043 0 30.859 13.816 30.859 30.86v83.868c0 5.681-4.605 10.286-10.286 10.286H2785.16c-71.478 0-129.423 57.945-129.423 129.423v61.129c0 71.478 57.945 129.423 129.423 129.423h266.809c14.295 0 25.884-11.589 25.884-25.885V521.303c0-61.948-54.047-112.166-115.994-112.166" fill="#4385bc" fill-rule="nonzero"/><path d="M2026.409 780.994c0 47.497-38.63 86.001-86.282 86.001h-62.711c-28.591 0-51.769-23.102-51.769-51.601V591.749c0-28.498 23.178-51.601 51.769-51.601h62.711c47.652 0 86.282 38.504 86.282 86.001v154.845zm-22.405-331.06h-178.357v-215.15c0-14.249-11.589-25.8-25.885-25.8h-58.194c-14.295 0-25.884 11.551-25.884 25.8v696.625c0 14.249 11.589 25.801 25.884 25.801h262.436c71.478 0 129.422-57.756 129.422-129.002V578.936c0-71.246-57.944-129.002-129.422-129.002" fill="#204f96" fill-rule="nonzero"/><path d="M3465.239 435.233h-201.198v-1.603c0-14.334-11.588-25.955-25.884-25.955h-56.111c-14.296 0-25.885 11.621-25.885 25.955v497.624c0 14.334 11.589 25.954 25.885 25.954h58.272c14.296 0 25.885-12.015 25.885-26.836V614.096c0-39.525 27.075-71.565 65.196-71.565h133.84c14.296 0 25.885-12.016 25.885-26.837V462.07c0-14.822-11.589-26.837-25.885-26.837M3637.099 622.406c0-61.404 50.168-111.182 112.053-111.182h2.029c61.885 0 112.053 49.778 112.053 111.182 0 7.304-5.968 13.226-13.33 13.226h-199.475c-7.362 0-13.33-5.922-13.33-13.226m51.769 110.835h214.246c28.591 0 51.768-22.997 51.768-51.367l.666-101.515c0-94.563-77.26-171.222-172.563-171.222h-81.631c-95.304 0-172.563 76.659-172.563 171.223v248.432c0 70.923 57.944 128.417 129.422 128.417h262.319c14.295 0 25.884-11.499 25.884-25.683v-53.541c0-14.184-11.589-25.683-25.884-25.683h-230.999c-28.591 0-51.769-22.998-51.769-51.367l-.665-16.327c0-28.369 23.178-51.367 51.769-51.367" fill="#4385bc" fill-rule="nonzero"/><path d="M882.479 345.584H747.086a2.835 2.835 0 01-2.835-2.835V289.78c0-27.614 22.386-50 50-50h41.063c27.614 0 50 22.386 50 50v52.969a2.835 2.835 0 01-2.835 2.835" fill="#de214c" fill-rule="nonzero"/><path d="M768.879 409.128h91.816a8.347 8.347 0 018.347 8.347v232.2c-15.053 14.61-40.486 13.745-54.255-2.473l-2.127-2.252c-14.011-14.844-38.222-14.699-52.128-.446V417.475a8.347 8.347 0 018.347-8.347m91.816-11.484h-91.816c-10.935 0-19.831 8.896-19.831 19.831v472.95c0 36.249 29.49 65.739 65.739 65.739 36.248 0 65.739-29.49 65.739-65.739v-472.95c0-10.935-8.896-19.831-19.831-19.831" fill="#204f96" fill-rule="nonzero"/></svg>
