<svg width="56" height="62" viewBox="0 0 56 62" fill="none" xmlns="http://www.w3.org/2000/svg">
<path d="M0 17.0762L3.86006e-06 44.9235C3.86006e-06 52.1452 6.01963 57.9998 13.4449 57.9998L50 58L50 4.00001L13.4451 4C6.01963 3.99982 0 9.85446 0 17.0762Z" fill="#F9ED80"/>
<path d="M40 7.93586V54.0641C40 58.447 43.5817 62 48 62C52.4183 62 56 58.447 56 54.0641V7.93586C56 3.55299 52.4183 0 48 0C43.5819 -0.000175476 40.0002 3.55282 40 7.93586Z" fill="#F8D070"/>
<path d="M0 44L2.31603e-06 45.3224C2.31603e-06 52.3239 5.77882 58 12.907 58L48 58L48 46.9096C30.0759 58.535 12.1928 52.012 0 44Z" fill="#F8D070"/>
<path d="M40 50.5884L40 54.0816C40 58.4548 43.5817 62 48 62C52.4183 62 56 58.4548 56 54.0816V40C50.6873 45.2043 45.3057 48.59 40 50.5884Z" fill="#F2C13B"/>
</svg>
