<svg width="273" height="66" viewBox="0 0 273 66" fill="none" xmlns="http://www.w3.org/2000/svg">
<path d="M58 58V42C58 42 64.3721 48.3604 71 49C91.0627 50.9362 189.215 55.5139 246 51C263.197 49.633 271 32 271 32C271.896 46.625 260.689 58 246 58H58Z" fill="#CACAC8" fill-opacity="0.5"/>
<path d="M58 8H246C259.807 8 271 19.1929 271 33C271 46.8071 259.807 58 246 58H58V8Z" stroke="#442257" stroke-width="4"/>
<path d="M128 40C128 35.5817 131.582 32 136 32H236C240.418 32 244 35.5817 244 40V58H128V40Z" stroke="#442257" stroke-width="4"/>
<path d="M2 47.3224L2 19.0762C2 11.8545 8.01963 5.99983 15.4451 6H43.0517C44.4303 3.61019 47.0256 1.99988 50 2C54.4183 2 58 5.553 58 9.93586V42V56.0641V56.0816C58 60.4548 54.4183 64 50 64C49.8466 64 49.6942 63.9957 49.5429 63.9873C46.7574 63.8319 44.3529 62.2662 43.0466 60H14.907C7.77882 60 2 54.3239 2 47.3224Z" fill="currentColor"/>
<path d="M42 9.93586V56.0641C42 60.447 45.5817 64 50 64C54.4183 64 58 60.447 58 56.0641V9.93586C58 5.55299 54.4183 2 50 2C45.5819 1.99982 42.0002 5.55282 42 9.93586Z" fill="#864886" fill-opacity="0.6" style="mix-blend-mode:hard-light"/>
<path d="M42 9.93586V56.0641C42 60.447 45.5817 64 50 64C54.4183 64 58 60.447 58 56.0641V9.93586C58 5.55299 54.4183 2 50 2C45.5819 1.99982 42.0002 5.55282 42 9.93586Z" fill="#858585" fill-opacity="0.2" style="mix-blend-mode:hard-light"/>
<path d="M2 46.0452L2 47.3591C2 54.3158 7.77882 59.9555 14.907 59.9555L44 60.0454V53L42 53.0003C36.5 54.9875 14.1928 54.0059 2 46.0452Z" fill="#864886" fill-opacity="0.6" style="mix-blend-mode:hard-light"/>
<path d="M2 46.0452L2 47.3591C2 54.3158 7.77882 59.9555 14.907 59.9555L44 60.0454V53L42 53.0003C36.5 54.9875 14.1928 54.0059 2 46.0452Z" fill="#858585" fill-opacity="0.2" style="mix-blend-mode:hard-light"/>
<path d="M42 53V56.0816C42 60.4548 45.5817 64 50 64C54.4183 64 58 60.4548 58 56.0816V42C52.6873 47.2043 47.3057 51.0016 42 53Z" fill="#864886" fill-opacity="0.3" style="mix-blend-mode:hard-light"/>
<path d="M42 53V56.0816C42 60.4548 45.5817 64 50 64C54.4183 64 58 60.4548 58 56.0816V42C52.6873 47.2043 47.3057 51.0016 42 53Z" fill="black" fill-opacity="0.05"/>
<path d="M50 64C45.5817 64 42 60.447 42 56.0641V47.3224M50 64C54.4183 64 58 60.447 58 56.0641V9.93586C58 5.553 54.4183 2 50 2C47.0256 1.99988 44.4303 3.61019 43.0517 6M50 64C54.4183 64 58 60.4548 58 56.0816V42M50 64C47.0219 64 44.4238 62.3893 43.0466 60M42 56.0816C42 57.5071 42.3805 58.8446 43.0466 60M42 40V9.93586C42.0001 8.5036 42.3826 7.15998 43.0517 6M43.0466 60H14.907C7.77882 60 2 54.3239 2 47.3224L2 19.0762C2 11.8545 8.01963 5.99983 15.4451 6H43.0517" stroke="#442257" stroke-width="4" stroke-linecap="round" stroke-linejoin="round"/>
</svg>
