<svg width="220" height="250" fill="none" xmlns="http://www.w3.org/2000/svg"><path d="M25 20v20c0 56.569 0 84.853 17.574 102.426C60.147 160 88.432 160 145 160h50" stroke="#E6A625" stroke-width="40" stroke-linecap="round"/><path d="M160 166l-27.5 47.631M35 52l43.301 25" stroke="#E653A5" stroke-width="40" stroke-linecap="round"/><path d="M82 38v90c0 47.14 0 70.711 14.645 85.355C111.289 228 134.86 228 182 228h2" stroke="#1751AF" stroke-width="40" stroke-linecap="round"/><mask id="prefix__a" maskUnits="userSpaceOnUse" x="62" y="18" width="142" height="230"><path d="M82 38v90c0 47.14 0 70.711 14.645 85.355C111.289 228 134.86 228 182 228h2" stroke="#1751AF" stroke-width="40" stroke-linecap="round"/></mask><g mask="url(#prefix__a)"><path d="M25 20v20c0 56.569 0 84.853 17.574 102.426C60.147 160 88.432 160 145 160h50" stroke="#E6A625" stroke-width="40" stroke-linecap="round"/></g></svg>
