<svg width="236" height="60" fill="none" xmlns="http://www.w3.org/2000/svg"><path d="M29.386 51.718a3.718 3.718 0 110 7.437h-8.62c-2.31 0-4.14-.028-5.493-.085-1.295-.112-2.93-.45-4.901-1.014-1.972-.62-3.634-1.52-4.986-2.704-2.085-1.915-3.437-4.197-4.056-6.845C.71 45.803.4 42.648.4 39.042V3.972a3.972 3.972 0 117.944 0v34.901c0 3.268.366 5.831 1.098 7.69 1.465 3.437 4.536 5.155 9.212 5.155h10.732zM59.842 34.93c.81.218 1.354.966 1.354 1.805v2.314c0 1.59-1.91 2.584-3.422 2.09-1.35-.439-2.829-.66-4.437-.66-2.648 0-4.704.536-6.169 1.606-1.465 1.015-2.197 2.48-2.197 4.395 0 3.718 2.76 5.577 8.282 5.577h7.313a3.841 3.841 0 003.842-3.84v-12.3c0-6.817-3.325-10.226-9.972-10.226h-9.972a3.55 3.55 0 010-7.098h10.394c5.465 0 9.662 1.352 12.592 4.056 2.93 2.704 4.394 6.591 4.394 11.662v17.162a7.682 7.682 0 01-7.682 7.683H52.999c-4.789 0-8.592-1.07-11.408-3.211-2.818-2.141-4.226-5.268-4.226-9.38 0-4.113 1.493-7.24 4.48-9.38 2.985-2.142 6.731-3.212 11.239-3.212 2.133 0 4.386.319 6.758.957zM79.444 3.803a3.803 3.803 0 117.605 0v35.07c0 4.451 1.127 7.916 3.38 10.395 2.31 2.422 5.465 3.633 9.465 3.633 4.17 0 7.437-1.183 9.803-3.549 2.366-2.423 3.55-5.915 3.55-10.479 0-4.338-1.296-7.746-3.888-10.225-2.535-2.535-5.887-3.803-10.056-3.803-2.106 0-4.044.357-5.813 1.071-1.484.6-3.398-.37-3.398-1.97v-2.524c0-.703.38-1.356 1.015-1.66 2.812-1.343 5.826-2.015 9.041-2.015 5.972 0 10.901 1.943 14.789 5.83 3.943 3.831 5.915 8.93 5.915 15.296 0 6.704-2.056 11.916-6.169 15.634C110.627 58.169 105.5 60 99.303 60c-5.916 0-10.704-1.916-14.366-5.746-3.662-3.831-5.493-8.958-5.493-15.38V3.802zm53.216 20.113c3.944-4.113 8.873-6.17 14.789-6.17 2.873 0 5.549.564 8.028 1.69 2.535 1.071 4.732 2.564 6.592 4.48 1.915 1.915 3.408 4.168 4.478 6.76 1.071 2.535 1.606 5.268 1.606 8.197 0 2.93-.535 5.69-1.606 8.282a20.317 20.317 0 01-4.309 6.676c-1.86 1.916-4.057 3.437-6.592 4.563-2.535 1.07-5.267 1.606-8.197 1.606-2.986 0-5.747-.535-8.282-1.606a21.203 21.203 0 01-6.507-4.563c-1.859-1.916-3.324-4.14-4.394-6.676-1.014-2.592-1.521-5.352-1.521-8.282 0-5.972 1.972-10.958 5.915-14.957zm14.789.93c-3.944 0-7.127 1.295-9.549 3.886-2.367 2.592-3.55 5.972-3.55 10.141 0 4.17 1.183 7.55 3.55 10.141 2.422 2.592 5.605 3.887 9.549 3.887 4 0 7.183-1.295 9.549-3.887 2.366-2.648 3.549-6.028 3.549-10.14 0-4.114-1.183-7.465-3.549-10.057-2.366-2.648-5.549-3.972-9.549-3.972zm62.035-20.874a3.972 3.972 0 117.943 0v36.591c0 6.704-1.746 11.634-5.239 14.79C208.751 58.45 203.54 60 196.554 60c-6.986 0-12.197-1.55-15.634-4.648-3.436-3.155-5.155-8.084-5.155-14.789V3.972a3.972 3.972 0 117.944 0v37.69c0 3.83 1.155 6.62 3.465 8.366 2.366 1.69 5.465 2.535 9.295 2.535 3.944 0 7.099-.845 9.465-2.535 2.366-1.746 3.55-4.535 3.55-8.366V3.972zm25.609 51.211a3.971 3.971 0 11-7.943 0V3.972a3.972 3.972 0 117.943 0v51.211z" fill="#fff"/></svg>
